<svg width="23" height="15" viewBox="0 0 23 15" fill="none" xmlns="http://www.w3.org/2000/svg">
    <path d="M7.46154 10.6923C10.138 10.6923 12.3077 8.52261 12.3077 5.84615C12.3077 3.1697 10.138 1 7.46154 1C4.78508 1 2.61539 3.1697 2.61539 5.84615C2.61539 8.52261 4.78508 10.6923 7.46154 10.6923Z" stroke="#BC433D" stroke-width="1.5" stroke-miterlimit="10"/>
    <path d="M13.9818 1.17811C14.6478 0.993947 15.3463 0.951995 16.0302 1.05507C16.7141 1.15815 17.3675 1.40387 17.9465 1.77568C18.5255 2.14748 19.0166 2.63674 19.3867 3.21051C19.7568 3.78427 19.9973 4.42921 20.092 5.10188C20.1868 5.77456 20.1336 6.45936 19.9359 7.11015C19.7383 7.76094 19.4009 8.36261 18.9464 8.87463C18.4919 9.38666 17.9309 9.79716 17.3012 10.0785C16.6714 10.3598 15.9876 10.5054 15.2957 10.5055M1 13.9231C1.75622 12.8674 2.76016 12.0057 3.92704 11.4109C5.09392 10.8161 6.3895 10.5055 7.7044 10.5055C9.01929 10.5054 10.3149 10.8159 11.4818 11.4106C12.6488 12.0053 13.6528 12.8669 14.4091 13.9226M15.2957 10.5055C16.6107 10.5045 17.9065 10.8146 19.0736 11.4094C20.2406 12.0042 21.2444 12.8663 22 13.9226" stroke="#BC433D" stroke-width="1.5" stroke-linecap="round" stroke-linejoin="round"/>
    </svg>
    